name Walk3.mot
datacolumns 19
datarows 22
range 2.43600000 2.45700000
endheader

                time	   L_ground_force_vx	   L_ground_force_vy	   L_ground_force_vz	   L_ground_force_px	   L_ground_force_py	   L_ground_force_pz	   R_ground_force_vx	   R_ground_force_vy	   R_ground_force_vz	   R_ground_force_px	   R_ground_force_py	   R_ground_force_pz	   L_ground_torque_x	   L_ground_torque_y	   L_ground_torque_z	   R_ground_torque_x	   R_ground_torque_y	   R_ground_torque_z	
          2.43600000	          8.00241980	         37.45954694	         -0.16696713	          0.00298152	          0.00000000	         -0.00120149	         -0.00000000	          0.00000000	          0.00000000	          0.00000000	          0.00000000	          0.00000000	          0.00000000	         -0.11561091	          0.00000000	          0.00000000	         -0.00000000	          0.00000000	
          2.43700000	          8.48835094	         41.48199722	         -0.18499322	         -0.01995131	          0.00000000	         -0.00282439	         -0.00000000	          0.00000000	          0.00000000	          0.00000000	          0.00000000	          0.00000000	          0.00000000	         -0.12724010	          0.00000000	          0.00000000	         -0.00000000	          0.00000000	
          2.43800000	          8.95144591	         45.61941888	         -0.20564499	         -0.04281149	          0.00000000	         -0.00444394	         -0.00000000	          0.00000000	          0.00000000	          0.00000000	          0.00000000	          0.00000000	          0.00000000	         -0.13859325	          0.00000000	          0.00000000	         -0.00000000	          0.00000000	
          2.43900000	          9.38831705	         49.86712929	         -0.22904791	         -0.06553773	          0.00000000	         -0.00605581	         -0.00000000	          0.00000000	          0.00000000	          0.00000000	          0.00000000	          0.00000000	          0.00000000	         -0.14961402	          0.00000000	          0.00000000	         -0.00000000	          0.00000000	
          2.44000000	          9.79543720	         54.21973303	         -0.25532424	         -0.08806802	          0.00000000	         -0.00765561	         -0.00000000	          0.00000000	          0.00000000	          0.00000000	          0.00000000	          0.00000000	          0.00000000	         -0.16024391	          0.00000000	          0.00000000	         -0.00000000	          0.00000000	
          2.44100000	         10.16913831	         58.67106974	         -0.28459229	         -0.11033989	          0.00000000	         -0.00923888	         -0.00000000	          0.00000000	          0.00000000	          0.00000000	          0.00000000	          0.00000000	          0.00000000	         -0.17042225	          0.00000000	          0.00000000	         -0.00000000	          0.00000000	
          2.44200000	         10.50562954	         63.21421047	         -0.31696465	         -0.13229214	          0.00000000	         -0.01080121	         -0.00000000	          0.00000000	          0.00000000	          0.00000000	          0.00000000	          0.00000000	          0.00000000	         -0.18008663	          0.00000000	          0.00000000	         -0.00000000	          0.00000000	
          2.44300000	         10.80103839	         67.84151338	         -0.35254527	         -0.15386763	          0.00000000	         -0.01233847	         -0.00000000	          0.00000000	          0.00000000	          0.00000000	          0.00000000	          0.00000000	          0.00000000	         -0.18917403	          0.00000000	          0.00000000	         -0.00000000	          0.00000000	
          2.44400000	         11.05146022	         72.54470356	         -0.39142661	         -0.17501511	          0.00000000	         -0.01384687	         -0.00000000	          0.00000000	          0.00000000	          0.00000000	          0.00000000	          0.00000000	          0.00000000	         -0.19762174	          0.00000000	          0.00000000	         -0.00000000	          0.00000000	
          2.44500000	         11.25300659	         77.31495718	         -0.43368750	         -0.19568934	          0.00000000	         -0.01532301	         -0.00000000	          0.00000000	          0.00000000	          0.00000000	          0.00000000	          0.00000000	          0.00000000	         -0.20536814	          0.00000000	          0.00000000	         -0.00000000	          0.00000000	
          2.44600000	         11.40185527	         82.14300365	         -0.47939071	         -0.21585080	          0.00000000	         -0.01676386	         -0.00000000	          0.00000000	          0.00000000	          0.00000000	          0.00000000	          0.00000000	          0.00000000	         -0.21235309	          0.00000000	          0.00000000	         -0.00000000	          0.00000000	
          2.44700000	         11.49430456	         87.01925850	         -0.52857951	         -0.23546529	          0.00000000	         -0.01816675	         -0.00000000	          0.00000000	          0.00000000	          0.00000000	          0.00000000	          0.00000000	          0.00000000	         -0.21851832	          0.00000000	          0.00000000	         -0.00000000	          0.00000000	
          2.44800000	         11.52683139	         91.93398843	         -0.58127207	         -0.25450363	          0.00000000	         -0.01952933	         -0.00000000	          0.00000000	          0.00000000	          0.00000000	          0.00000000	          0.00000000	          0.00000000	         -0.22380767	          0.00000000	          0.00000000	         -0.00000000	          0.00000000	
          2.44900000	         11.49615273	         96.87750370	         -0.63745328	         -0.27294133	          0.00000000	         -0.02084962	         -0.00000000	          0.00000000	          0.00000000	          0.00000000	          0.00000000	          0.00000000	          0.00000000	         -0.22816743	          0.00000000	          0.00000000	         -0.00000000	          0.00000000	
          2.45000000	         11.39928918	        101.84036542	         -0.69706406	         -0.29075823	          0.00000000	         -0.02212597	         -0.00000000	          0.00000000	          0.00000000	          0.00000000	          0.00000000	          0.00000000	          0.00000000	         -0.23154668	          0.00000000	          0.00000000	         -0.00000000	          0.00000000	
          2.45100000	         11.23362862	        106.81359053	         -0.75998930	         -0.30793826	          0.00000000	         -0.02335702	         -0.00000000	          0.00000000	          0.00000000	          0.00000000	          0.00000000	          0.00000000	          0.00000000	         -0.23389779	          0.00000000	          0.00000000	         -0.00000000	          0.00000000	
          2.45200000	         10.99698705	        111.78883639	         -0.82604594	         -0.32446913	          0.00000000	         -0.02454172	         -0.00000000	          0.00000000	          0.00000000	          0.00000000	          0.00000000	          0.00000000	          0.00000000	         -0.23517685	          0.00000000	          0.00000000	         -0.00000000	          0.00000000	
          2.45300000	         10.68766276	        116.75855046	         -0.89497339	         -0.34034206	          0.00000000	         -0.02567932	         -0.00000000	          0.00000000	          0.00000000	          0.00000000	          0.00000000	          0.00000000	          0.00000000	         -0.23534422	          0.00000000	          0.00000000	         -0.00000000	          0.00000000	
          2.45400000	         10.30447988	        121.71607591	         -0.96642808	         -0.35555151	          0.00000000	         -0.02676930	         -0.00000000	          0.00000000	          0.00000000	          0.00000000	          0.00000000	          0.00000000	          0.00000000	         -0.23436499	          0.00000000	          0.00000000	         -0.00000000	          0.00000000	
          2.45500000	          9.84681816	        126.65571014	         -1.03998346	         -0.37009494	          0.00000000	         -0.02781140	         -0.00000000	          0.00000000	          0.00000000	          0.00000000	          0.00000000	          0.00000000	          0.00000000	         -0.23220934	          0.00000000	          0.00000000	         -0.00000000	          0.00000000	
          2.45600000	          9.31462757	        131.57271802	         -1.11513594	         -0.38397257	          0.00000000	         -0.02880561	         -0.00000000	          0.00000000	          0.00000000	          0.00000000	          0.00000000	          0.00000000	          0.00000000	         -0.22885277	          0.00000000	          0.00000000	         -0.00000000	          0.00000000	
          2.45700000	          8.70842752	        136.46330527	         -1.19131609	         -0.39718714	          0.00000000	         -0.02975212	         -0.00000000	          0.00000000	          0.00000000	          0.00000000	          0.00000000	          0.00000000	          0.00000000	         -0.22427618	          0.00000000	          0.00000000	         -0.00000000	          0.00000000	
